#Unknow ASF file
:FULLY-SPECIFIED
:DEGREES
1
root 0.590969 17.2875 -16.0743 -1.10083 -4.485 -4.98517
lfemur -33.1937 -11.6075 -14.9813
ltibia 32.8624
lfoot 3.57704 3.62653
ltoes 1.01535
rfemur -24.2119 -16.3045 22.6704
rtibia 66.7935
rfoot -47.6676 -0.597665
rtoes 1.61918
lowerback 18.1692 1.04564 2.17027
upperback -0.181494 2.05434 1.9668
thorax -10.4283 0.91758 0.36708
lowerneck -7.76072 2.6247 0.875466
upperneck 32.5791 4.61956 -3.0353
head 12.065 1.81186 -0.726229
lclavicle -6.12195e-015 -5.91384e-015
lhumerus -31.3783 -11.8901 90.1251
lradius 54.3973
lwrist -37.1934
lhand -27.9253 43.3682
lfingers 7.12502
lthumb -1.31372 -286.656
rclavicle -6.12195e-015 -5.91384e-015
rhumerus -37.7254 -13.3186 -71.3511
rradius 43.7417
rwrist -6.00488
rhand -11.8518 7.58804
rfingers 7.12502
rthumb 14.1998 -21.9066
